<?xml version="1.0" encoding="UTF-8"?>
<svg width="19px" height="20px" viewBox="0 0 19 20" version="1.1" xmlns="http://www.w3.org/2000/svg" xmlns:xlink="http://www.w3.org/1999/xlink">
    <!-- Generator: Sketch 53.2 (72643) - https://sketchapp.com -->
    <title>insta icon</title>
    <desc>Created with Sketch.</desc>
    <g id="Symbols" stroke="none" stroke-width="1" fill="none" fill-rule="evenodd">
        <g id="footer---desktop" transform="translate(-584.000000, -419.000000)" fill="#F46C63">
            <g id="footer">
                <g id="SoMe" transform="translate(584.802213, 419.500063)">
                    <path d="M13.7934072,3.55625533 C13.1973494,3.55625533 12.7143133,4.04455533 12.7143133,4.64710867 C12.7143133,5.249662 13.1973494,5.73808867 13.7934072,5.73808867 C14.3894651,5.73808867 14.8725012,5.249662 14.8725012,4.64710867 C14.8725012,4.04455533 14.3894651,3.55625533 13.7934072,3.55625533 M8.99286747,12.5303353 C7.33751325,12.5303353 5.99541205,11.1736087 5.99541205,9.499962 C5.99541205,7.82631533 7.33751325,6.46958867 8.99286747,6.46958867 C10.6484723,6.46958867 11.9905735,7.82631533 11.9905735,9.499962 C11.9905735,11.1736087 10.6484723,12.5303353 8.99286747,12.5303353 M8.99286747,4.83153533 C6.44248675,4.83153533 4.37501687,6.921662 4.37501687,9.499962 C4.37501687,12.0781353 6.44248675,14.168262 8.99286747,14.168262 C11.5433735,14.168262 13.6109687,12.0781353 13.6109687,9.499962 C13.6109687,6.921662 11.5433735,4.83153533 8.99286747,4.83153533 M8.99286747,0.408968667 C6.55062169,0.408968667 6.24438554,0.419355333 5.28520482,0.463688667 C4.32802892,0.507895333 3.67420723,0.661415333 3.10220723,0.886248667 C2.51091084,1.11855533 2.00933012,1.42939533 1.50937831,1.93479533 C1.00942651,2.44019533 0.702062651,2.94711533 0.47213494,3.544982 C0.249850602,4.123342 0.0977349398,4.78403533 0.0541301205,5.75176867 C0.0104,6.721402 -2.48689958e-14,7.03097533 -2.48689958e-14,9.499962 C-2.48689958e-14,11.9689487 0.0104,12.2783953 0.0541301205,13.2481553 C0.0977349398,14.215762 0.249850602,14.876582 0.47213494,15.454942 C0.702062651,16.052682 1.00942651,16.559602 1.50937831,17.065002 C2.00933012,17.5705287 2.51091084,17.8813687 3.10220723,18.1136753 C3.67420723,18.338382 4.32802892,18.4920287 5.28520482,18.5362353 C6.24438554,18.580442 6.55062169,18.5908287 8.99286747,18.5908287 C11.4353639,18.5908287 11.7416,18.580442 12.7006554,18.5362353 C13.6579566,18.4920287 14.311653,18.338382 14.883653,18.1136753 C15.4750747,17.8813687 15.9766554,17.5705287 16.4764819,17.065002 C16.9764337,16.559602 17.2839229,16.052682 17.5137253,15.454942 C17.7361349,14.876582 17.8881253,14.215762 17.9317301,13.2481553 C17.9755855,12.2783953 17.9858602,11.9689487 17.9858602,9.499962 C17.9858602,7.03097533 17.9755855,6.721402 17.9317301,5.75176867 C17.8881253,4.78403533 17.7361349,4.123342 17.5137253,3.544982 C17.2839229,2.94711533 16.9764337,2.44019533 16.4764819,1.93479533 C15.9766554,1.42939533 15.4750747,1.11855533 14.883653,0.886248667 C14.311653,0.661415333 13.6579566,0.507895333 12.7006554,0.463688667 C11.7416,0.419355333 11.4353639,0.408968667 8.99286747,0.408968667 M8.99286747,2.047022 C11.3942651,2.047022 11.6785735,2.05626867 12.626853,2.09996867 C13.5035855,2.14037533 13.9798554,2.28844867 14.2967422,2.41308867 C14.7165012,2.577882 15.0160964,2.77497533 15.330853,3.09303533 C15.6454843,3.41109533 15.8403277,3.71395533 16.0034699,4.13841533 C16.126641,4.45862867 16.2731181,4.94008867 16.3130892,5.82637533 C16.3564434,6.78498867 16.3654651,7.072522 16.3654651,9.499962 C16.3654651,11.9272753 16.3564434,12.2148087 16.3130892,13.173422 C16.2731181,14.0598353 16.126641,14.5411687 16.0034699,14.8615087 C15.8403277,15.2859687 15.6454843,15.588702 15.330853,15.906762 C15.0160964,16.2249487 14.7165012,16.4219153 14.2967422,16.5868353 C13.9798554,16.7113487 13.5035855,16.859422 12.626853,16.8999553 C11.6786988,16.9435287 11.3943904,16.952902 8.99286747,16.952902 C6.59146988,16.952902 6.30716145,16.9435287 5.35900723,16.8999553 C4.4821494,16.859422 4.00613012,16.7113487 3.68911807,16.5868353 C3.26948434,16.4219153 2.96976386,16.2249487 2.65513253,15.9068887 C2.3405012,15.588702 2.14553253,15.2859687 1.98239036,14.8615087 C1.85934458,14.5411687 1.71286747,14.0598353 1.67289639,13.1735487 C1.62954217,12.2148087 1.62039518,11.9272753 1.62039518,9.499962 C1.62039518,7.072522 1.62954217,6.78498867 1.67289639,5.82637533 C1.71286747,4.94008867 1.85934458,4.45862867 1.98239036,4.13841533 C2.14553253,3.71395533 2.3405012,3.41109533 2.65513253,3.09303533 C2.96976386,2.77497533 3.26948434,2.577882 3.68911807,2.41308867 C4.00613012,2.28844867 4.4821494,2.14037533 5.35900723,2.09996867 C6.30728675,2.05626867 6.59172048,2.047022 8.99286747,2.047022" id="insta-icon"></path>
                </g>
            </g>
        </g>
    </g>
</svg>