<?xml version="1.0" encoding="UTF-8"?>
<svg width="19px" height="17px" viewBox="0 0 19 17" version="1.1" xmlns="http://www.w3.org/2000/svg" xmlns:xlink="http://www.w3.org/1999/xlink">
    <!-- Generator: Sketch 53.2 (72643) - https://sketchapp.com -->
    <title>linkedin icon</title>
    <desc>Created with Sketch.</desc>
    <g id="Symbols" stroke="none" stroke-width="1" fill="none" fill-rule="evenodd">
        <g id="footer---desktop" transform="translate(-711.000000, -419.000000)" fill="#F46C63">
            <g id="footer">
                <g id="SoMe" transform="translate(584.802213, 419.500063)">
                    <path d="M129.087133,0.24871 C127.829861,0.24871 127.006507,1.07394333 127.006507,2.16226333 C127.006507,3.22955667 127.805678,4.07201667 129.038517,4.07201667 L129.063076,4.07201667 C130.343529,4.07201667 131.141447,3.22689667 131.141447,2.15922333 C131.116637,1.07179 130.343529,0.24871 129.087133,0.24871 L129.087133,0.24871 Z M140.160753,5.34451 C138.208435,5.34451 136.986121,6.42396333 136.759702,7.18016333 L136.759702,5.45053 L132.933003,5.45053 C132.982748,6.36899 132.933003,16.4711633 132.933003,16.4711633 L136.759702,16.4711633 L136.759702,10.50795 C136.759702,10.1757033 136.744791,9.84447 136.843153,9.60709667 C137.106536,8.94412333 137.671018,8.25695667 138.687587,8.25695667 C140.016782,8.25695667 140.620358,9.27548333 140.620358,10.76825 L140.620358,16.4711633 L144.483143,16.4711633 L144.483143,10.34303 C144.483143,6.93012333 142.581071,5.34451 140.160753,5.34451 L140.160753,5.34451 Z M127.446941,16.4711633 L130.853755,16.4711633 L130.853755,5.45053 L127.446941,5.45053 L127.446941,16.4711633 Z" id="linkedin-icon"></path>
                </g>
            </g>
        </g>
    </g>
</svg>