<svg width="19" height="20" viewBox="0 0 19 20" fill="none" xmlns="http://www.w3.org/2000/svg">
<path d="M16.1344 4.27729C15.9994 4.20752 15.868 4.13104 15.7407 4.04813C15.3704 3.80333 15.0309 3.51489 14.7295 3.18901C13.9753 2.32613 13.6937 1.45076 13.5899 0.837875H13.5941C13.5074 0.32915 13.5433 0 13.5487 0H10.1139V13.2818C10.1139 13.4602 10.1139 13.6364 10.1064 13.8106C10.1064 13.8322 10.1043 13.8522 10.103 13.8756C10.103 13.8851 10.103 13.8951 10.101 13.9051C10.101 13.9076 10.101 13.9101 10.101 13.9126C10.0647 14.3892 9.91198 14.8495 9.6561 15.2532C9.40022 15.6568 9.04907 15.9914 8.63353 16.2275C8.20044 16.4739 7.71061 16.6032 7.21235 16.6025C5.61201 16.6025 4.31499 15.2976 4.31499 13.686C4.31499 12.0744 5.61201 10.7695 7.21235 10.7695C7.51528 10.7692 7.81635 10.8169 8.10439 10.9107L8.10855 7.41338C7.23416 7.30043 6.34586 7.36992 5.49967 7.61747C4.65348 7.86502 3.86778 8.28524 3.19213 8.85164C2.6001 9.36603 2.10239 9.97979 1.72137 10.6653C1.57638 10.9153 1.02932 11.9198 0.963075 13.5502C0.921411 14.4755 1.19931 15.4342 1.33181 15.8305V15.8388C1.41514 16.0721 1.73804 16.8683 2.26426 17.5395C2.68859 18.078 3.18992 18.5509 3.7521 18.9432V18.9349L3.76044 18.9432C5.42327 20.0732 7.26693 19.999 7.26693 19.999C7.58608 19.9861 8.65519 19.999 9.8693 19.4236C11.2159 18.7857 11.9825 17.8354 11.9825 17.8354C12.4723 17.2675 12.8617 16.6204 13.1341 15.9217C13.445 15.1047 13.5487 14.1247 13.5487 13.7331V6.68675C13.5904 6.71175 14.1453 7.07881 14.1453 7.07881C14.1453 7.07881 14.9449 7.59129 16.1923 7.92502C17.0873 8.16251 18.293 8.21251 18.293 8.21251V4.80268C17.8706 4.84851 17.0127 4.71518 16.1344 4.27729Z" fill="#F46C63"/>
</svg>
