<?xml version="1.0" encoding="UTF-8"?>
<svg width="18px" height="16px" viewBox="0 0 18 16" version="1.1" xmlns="http://www.w3.org/2000/svg" xmlns:xlink="http://www.w3.org/1999/xlink">
    <!-- Generator: Sketch 53.2 (72643) - https://sketchapp.com -->
    <title>twitter icon</title>
    <desc>Created with Sketch.</desc>
    <g id="Symbols" stroke="none" stroke-width="1" fill="none" fill-rule="evenodd">
        <g id="footer---desktop" transform="translate(-649.000000, -421.000000)" fill="#F46C63">
            <g id="footer">
                <g id="SoMe" transform="translate(584.802213, 419.500063)">
                    <path d="M81.336879,4.07816 C80.701226,4.38874667 80.025226,4.58964 79.308879,4.68248667 C80.0388839,4.20748667 80.5989802,3.45939333 80.8643682,2.56297333 C80.1816019,3.00035333 79.4259104,3.31322 78.6208501,3.496 C77.9799345,2.74702 77.0602236,2.28 76.0491682,2.28 C74.1019875,2.28 72.5239441,3.99608 72.5239441,6.11774667 C72.5239441,6.41554 72.5543923,6.71029333 72.6126573,6.98756667 C69.6885031,6.83480667 67.0867489,5.30112667 65.3468164,2.98439333 C65.0447152,3.54958 64.8716742,4.20748667 64.8716742,4.91314667 C64.8716742,6.24099333 65.4930429,7.42266667 66.4408212,8.10084 C65.861679,8.07702667 65.3179971,7.91375333 64.8433561,7.62368667 L64.8433561,7.67612667 C64.8433561,9.53166667 66.0584019,11.0801667 67.6710284,11.43838 C67.3758188,11.5254 67.0631923,11.5651733 66.7396646,11.5651733 C66.51312,11.5651733 66.2981031,11.54934 66.0804549,11.4967733 C66.527279,13.0266533 67.8304116,14.1380267 69.3727441,14.1608267 C68.1659682,15.19506 66.6463152,15.80268 64.9943441,15.80268 C64.7091586,15.80268 64.4274814,15.7857067 64.1526959,15.7491 C65.7121947,16.8426133 67.5618911,17.48 69.5573128,17.48 C76.0412742,17.48 79.5890525,11.6315467 79.5890525,6.56171333 C79.5890525,6.39958 79.5852935,6.23529333 79.5773995,6.07088 C80.2654284,5.52266667 80.8643682,4.84588667 81.336879,4.07816" id="twitter-icon"></path>
                </g>
            </g>
        </g>
    </g>
</svg>