<?xml version="1.0" encoding="UTF-8"?>
<svg width="20px" height="14px" viewBox="0 0 20 14" version="1.1" xmlns="http://www.w3.org/2000/svg" xmlns:xlink="http://www.w3.org/1999/xlink">
    <!-- Generator: Sketch 53.2 (72643) - https://sketchapp.com -->
    <title>youtube icon</title>
    <desc>Created with Sketch.</desc>
    <g id="Symbols" stroke="none" stroke-width="1" fill="none" fill-rule="evenodd">
        <g id="footer---desktop" transform="translate(-836.000000, -422.000000)" fill="#F46C63">
            <g id="footer">
                <g id="SoMe" transform="translate(584.802213, 419.500063)">
                    <path d="M259.015715,12.06823 L259.014712,6.57672333 L264.239021,9.33197667 L259.015715,12.06823 Z M270.485536,5.62545667 C270.485536,5.62545667 270.296582,4.27861 269.716939,3.68543 C268.981797,2.90706333 268.157691,2.90326333 267.779657,2.85753667 C265.074279,2.65993667 261.015898,2.65993667 261.015898,2.65993667 L261.007503,2.65993667 C261.007503,2.65993667 256.949247,2.65993667 254.243618,2.85753667 C253.865585,2.90326333 253.041854,2.90706333 252.306462,3.68543 C251.726693,4.27861 251.538115,5.62545667 251.538115,5.62545667 C251.538115,5.62545667 251.344775,7.20701667 251.344775,8.78857667 L251.344775,10.2713367 C251.344775,11.8530233 251.538115,13.4345833 251.538115,13.4345833 C251.538115,13.4345833 251.726693,14.78143 252.306462,15.37461 C253.041854,16.1529767 254.007927,16.1284033 254.438336,16.2099767 C255.985054,16.35995 261.011763,16.40631 261.011763,16.40631 C261.011763,16.40631 265.074279,16.4001033 267.779657,16.2023767 C268.157691,16.1567767 268.981797,16.1529767 269.716939,15.37461 C270.296582,14.78143 270.485536,13.4345833 270.485536,13.4345833 C270.485536,13.4345833 270.6785,11.8530233 270.6785,10.2713367 L270.6785,8.78857667 C270.6785,7.20701667 270.485536,5.62545667 270.485536,5.62545667 L270.485536,5.62545667 Z" id="youtube-icon"></path>
                </g>
            </g>
        </g>
    </g>
</svg>