<?xml version="1.0" encoding="utf-8"?>
<svg xmlns="http://www.w3.org/2000/svg" viewBox="0 0 943 391" width="943" height="391"
     preserveAspectRatio="xMidYMid meet" style="width: 100%; height: 100%; transform: translate3d(0px, 0px, 0px);">
    <defs>
        <clipPath id="__lottie_element_2">
            <rect width="943" height="391" x="0" y="0"></rect>
        </clipPath>
        <mask id="__lottie_element_12" mask-type="alpha">
            <g style="display: none;">
                <g>
                    <path></path>
                    <path stroke-linecap="butt" stroke-linejoin="miter" fill-opacity="0" stroke-miterlimit="4"></path>
                </g>
            </g>
        </mask>
        <mask id="__lottie_element_24" mask-type="alpha">
            <g style="display: none;">
                <g>
                    <path></path>
                    <path stroke-linecap="butt" stroke-linejoin="miter" fill-opacity="0" stroke-miterlimit="4"></path>
                </g>
            </g>
        </mask>
        <clipPath id="__lottie_element_37">
            <path d="M0,0 L2616,0 L2616,773 L0,773z"></path>
        </clipPath>
        <clipPath id="__lottie_element_44">
            <path d="M0,0 L2616,0 L2616,773 L0,773z"></path>
        </clipPath>
        <mask id="__lottie_element_47" mask-type="alpha">
            <g transform="matrix(1,0,0,0.9506199955940247,1307.5,385.5)" opacity="1" style="display: block;">
                <g opacity="1" transform="matrix(1,0,0,1,474,63)">
                    <path fill="rgb(255,0,0)" fill-opacity="1" d="M0 0"></path>
                    <path stroke-linecap="butt" stroke-linejoin="miter" fill-opacity="0" stroke-miterlimit="4"
                          stroke="rgb(103,103,103)" stroke-opacity="1" stroke-width="88"
                          d=" M0,-103.5 C57.12165069580078,-103.5 103.5,-57.12165069580078 103.5,0 C103.5,57.12165069580078 57.12165069580078,103.5 0,103.5 C-57.12165069580078,103.5 -103.5,57.12165069580078 -103.5,0 C-103.5,-57.12165069580078 -57.12165069580078,-103.5 0,-103.5z"></path>
                </g>
            </g>
        </mask>
        <clipPath id="__lottie_element_54">
            <path d="M0,0 L2616,0 L2616,773 L0,773z"></path>
        </clipPath>
        <clipPath id="__lottie_element_55">
            <path fill="#ffffff" clip-rule="nonzero"
                  d=" M2160.60400390625,149 C2160.60400390625,149 1905.60400390625,149 1905.60400390625,149 C1905.60400390625,149 1905.60400390625,284 1905.60400390625,284 C1905.60400390625,284 2160.60400390625,284 2160.60400390625,284 C2160.60400390625,284 2160.60400390625,149 2160.60400390625,149"
                  fill-opacity="1"></path>
        </clipPath>
        <mask id="__lottie_element_57" mask-type="alpha">
            <g transform="matrix(1,0,0,0.9506199955940247,1566,174.49993896484375)" opacity="1" style="display: block;">
                <g opacity="1" transform="matrix(1,0,0,1,473.25,63)">
                    <path fill="rgb(209,209,209)" fill-opacity="1" d="M0 0"></path>
                    <path stroke-linecap="butt" stroke-linejoin="miter" fill-opacity="0" stroke-miterlimit="4"
                          stroke="rgb(103,103,103)" stroke-opacity="1" stroke-width="55"
                          d=" M0,-27.5 C15.177249908447266,-27.5 27.5,-15.177249908447266 27.5,0 C27.5,15.177249908447266 15.177249908447266,27.5 0,27.5 C-15.177249908447266,27.5 -27.5,15.177249908447266 -27.5,0 C-27.5,-15.177249908447266 -15.177249908447266,-27.5 0,-27.5z"></path>
                </g>
            </g>
        </mask>
        <clipPath id="__lottie_element_67">
            <path d="M0,0 L2616,0 L2616,773 L0,773z"></path>
        </clipPath>
        <mask id="__lottie_element_68">
            <rect fill="#ffffff" width="943" height="391" transform="matrix(1,0,0,1,1307,191)"></rect>
            <path fill="#000000" clip-rule="nonzero"
                  d=" M1978,304 C1978,304 1840,304 1840,304 C1840,304 1840,605 1840,605 C1840,605 1978,605 1978,605 C1978,605 1978,304 1978,304"
                  fill-opacity="1"></path>
            <path fill="#000000" clip-rule="nonzero"
                  d=" M2160.60400390625,149 C2160.60400390625,149 1905.60400390625,149 1905.60400390625,149 C1905.60400390625,149 1905.60400390625,284 1905.60400390625,284 C1905.60400390625,284 2160.60400390625,284 2160.60400390625,284 C2160.60400390625,284 2160.60400390625,149 2160.60400390625,149"
                  fill-opacity="1"></path>
        </mask>
        <mask id="__lottie_element_70" mask-type="alpha">
            <g transform="matrix(1,0,0,0.9506199955940247,1566,174.49993896484375)" opacity="1" style="display: block;">
                <g opacity="1" transform="matrix(1,0,0,1,473.25,63)">
                    <path fill="rgb(209,209,209)" fill-opacity="1" d="M0 0"></path>
                    <path stroke-linecap="butt" stroke-linejoin="miter" fill-opacity="0" stroke-miterlimit="4"
                          stroke="rgb(103,103,103)" stroke-opacity="1" stroke-width="55"
                          d=" M0,-27.5 C15.177249908447266,-27.5 27.5,-15.177249908447266 27.5,0 C27.5,15.177249908447266 15.177249908447266,27.5 0,27.5 C-15.177249908447266,27.5 -27.5,15.177249908447266 -27.5,0 C-27.5,-15.177249908447266 -15.177249908447266,-27.5 0,-27.5z"></path>
                </g>
            </g>
        </mask>
        <clipPath id="__lottie_element_80">
            <path d="M0,0 L2616,0 L2616,773 L0,773z"></path>
        </clipPath>
    </defs>
    <g clip-path="url(#__lottie_element_2)">
        <g clip-path="url(#__lottie_element_80)" transform="matrix(1,0,0,1,-1307,-191)" opacity="1"
           style="display: block;">
            <g transform="matrix(1,0,0,1,0,0)" opacity="1" style="display: block;">
                <g opacity="1" transform="matrix(1,0,0,1,2201.77490234375,533.2639770507812)">
                    <path fill="rgb(65025,65025,65025)" fill-opacity="1"
                          d=" M44.02299880981445,-19.509000778198242 C41.724998474121094,-25.18899917602539 38.21900177001953,-30.301000595092773 33.750999450683594,-34.492000579833984 C29.3439998626709,-38.70399856567383 24.150999069213867,-42.00699996948242 18.466999053955078,-44.209999084472656 C6.5370001792907715,-48.5260009765625 -6.53000020980835,-48.5260009765625 -18.459999084472656,-44.209999084472656 C-24.145000457763672,-42.00600051879883 -29.339000701904297,-38.70399856567383 -33.74700164794922,-34.492000579833984 C-38.21500015258789,-30.299999237060547 -41.71900177001953,-25.187999725341797 -44.018001556396484,-19.509000778198242 C-48.58300018310547,-7.307000160217285 -48.58300018310547,6.135000228881836 -44.018001556396484,18.336999893188477 C-39.2239990234375,29.934999465942383 -30.03700065612793,39.16699981689453 -18.459999084472656,44.01499938964844 C-12.586999893188477,46.34000015258789 -6.318999767303467,47.50400161743164 -0.0020000000949949026,47.44300079345703 C6.317999839782715,47.50600051879883 12.59000015258789,46.34199905395508 18.466999053955078,44.01499938964844 C30.042999267578125,39.16600036621094 39.229000091552734,29.934999465942383 44.02299880981445,18.336999893188477 C48.5880012512207,6.135000228881836 48.5880012512207,-7.307000160217285 44.02299880981445,-19.509000778198242z"></path>
                </g>
            </g>
        </g>
        <g clip-path="url(#__lottie_element_67)" transform="matrix(1,0,0,1,-1307,-191)" opacity="1"
           style="display: block;">
            <g mask="url(#__lottie_element_68)">
                <g transform="matrix(1,0,0,1,0,0)" opacity="1" style="display: block;">
                    <g opacity="1" transform="matrix(1,0,0,1,2039.385009765625,445.2229919433594)">
                        <path fill="rgb(65025,65025,65025)" fill-opacity="1"
                              d=" M-38.152000427246094,131.57000732421875 C-38.152000427246094,131.57000732421875 38.150001525878906,131.57000732421875 38.150001525878906,131.57000732421875 C38.150001525878906,131.57000732421875 38.152000427246094,131.5679931640625 38.152000427246094,131.5679931640625 C38.152000427246094,131.5679931640625 38.152000427246094,-131.57000732421875 38.152000427246094,-131.57000732421875 C38.152000427246094,-131.57000732421875 -38.152000427246094,-131.57000732421875 -38.152000427246094,-131.57000732421875 C-38.152000427246094,-131.57000732421875 -38.152000427246094,131.57000732421875 -38.152000427246094,131.57000732421875z"></path>
                    </g>
                </g>
                <g mask="url(#__lottie_element_70)" style="display: block;">
                    <g transform="matrix(1,0,0,1,0,0)" opacity="1">
                        <g opacity="1" transform="matrix(1,0,0,1,2039.385009765625,234.41400146484375)">
                            <path fill="rgb(65025,65025,65025)" fill-opacity="1"
                                  d=" M34.24100112915039,-30.81100082397461 C29.823999404907227,-34.72800064086914 24.667999267578125,-37.72200012207031 19.07699966430664,-39.61800003051758 C12.923999786376953,-41.64099884033203 6.478000164031982,-42.632999420166016 0.0020000000949949026,-42.55400085449219 C-6.485000133514404,-42.63600158691406 -12.937999725341797,-41.60200119018555 -19.073999404907227,-39.49800109863281 C-24.698999404907227,-37.50299835205078 -29.858999252319336,-34.38399887084961 -34.23899841308594,-30.329999923706055 C-38.45500183105469,-26.5 -41.827999114990234,-21.836000442504883 -44.143001556396484,-16.631999969482422 C-46.37900161743164,-11.375 -47.50299835205078,-5.711999893188477 -47.44499969482422,0 C-47.50299835205078,5.711999893188477 -46.37900161743164,11.37399959564209 -44.143001556396484,16.6299991607666 C-41.827999114990234,21.834999084472656 -38.45500183105469,26.499000549316406 -34.23899841308594,30.32699966430664 C-29.858999252319336,34.38100051879883 -24.698999404907227,37.500999450683594 -19.073999404907227,39.494998931884766 C-12.937999725341797,41.599998474121094 -6.485000133514404,42.6349983215332 0.0020000000949949026,42.55400085449219 C6.493000030517578,42.63800048828125 12.949000358581543,41.584999084472656 19.07699966430664,39.44200134277344 C24.719999313354492,37.395999908447266 29.881000518798828,34.21200180053711 34.24100112915039,30.086999893188477 C38.499000549316406,26.125999450683594 41.874000549316406,21.312000274658203 44.145999908447266,15.958999633789062 C46.393001556396484,10.428999900817871 47.51599884033203,4.50600004196167 47.446998596191406,-1.4639999866485596 C47.507999420166016,-7.01800012588501 46.382999420166016,-12.520999908447266 44.145999908447266,-17.606000900268555 C41.819000244140625,-22.660999298095703 38.44300079345703,-27.163000106811523 34.24100112915039,-30.81100082397461z"></path>
                        </g>
                    </g>
                </g>
            </g>
        </g>
        <g clip-path="url(#__lottie_element_54)" transform="matrix(1,0,0,1,-1307,-191)" opacity="1"
           style="display: block;">
            <g clip-path="url(#__lottie_element_55)">
                <g transform="matrix(1,0,0,1,0,0)" opacity="1" style="display: block;">
                    <g opacity="1" transform="matrix(1,0,0,1,2039.385009765625,445.2229919433594)">
                        <path fill="rgb(65025,65025,65025)" fill-opacity="1"
                              d=" M-38.152000427246094,131.57000732421875 C-38.152000427246094,131.57000732421875 38.150001525878906,131.57000732421875 38.150001525878906,131.57000732421875 C38.150001525878906,131.57000732421875 38.152000427246094,131.5679931640625 38.152000427246094,131.5679931640625 C38.152000427246094,131.5679931640625 38.152000427246094,-131.57000732421875 38.152000427246094,-131.57000732421875 C38.152000427246094,-131.57000732421875 -38.152000427246094,-131.57000732421875 -38.152000427246094,-131.57000732421875 C-38.152000427246094,-131.57000732421875 -38.152000427246094,131.57000732421875 -38.152000427246094,131.57000732421875z"></path>
                    </g>
                </g>
                <g mask="url(#__lottie_element_57)" style="display: block;">
                    <g transform="matrix(1,0,0,1,0,0)" opacity="1">
                        <g opacity="1" transform="matrix(1,0,0,1,2039.385009765625,234.41400146484375)">
                            <path fill="rgb(65025,65025,65025)" fill-opacity="1"
                                  d=" M34.24100112915039,-30.81100082397461 C29.823999404907227,-34.72800064086914 24.667999267578125,-37.72200012207031 19.07699966430664,-39.61800003051758 C12.923999786376953,-41.64099884033203 6.478000164031982,-42.632999420166016 0.0020000000949949026,-42.55400085449219 C-6.485000133514404,-42.63600158691406 -12.937999725341797,-41.60200119018555 -19.073999404907227,-39.49800109863281 C-24.698999404907227,-37.50299835205078 -29.858999252319336,-34.38399887084961 -34.23899841308594,-30.329999923706055 C-38.45500183105469,-26.5 -41.827999114990234,-21.836000442504883 -44.143001556396484,-16.631999969482422 C-46.37900161743164,-11.375 -47.50299835205078,-5.711999893188477 -47.44499969482422,0 C-47.50299835205078,5.711999893188477 -46.37900161743164,11.37399959564209 -44.143001556396484,16.6299991607666 C-41.827999114990234,21.834999084472656 -38.45500183105469,26.499000549316406 -34.23899841308594,30.32699966430664 C-29.858999252319336,34.38100051879883 -24.698999404907227,37.500999450683594 -19.073999404907227,39.494998931884766 C-12.937999725341797,41.599998474121094 -6.485000133514404,42.6349983215332 0.0020000000949949026,42.55400085449219 C6.493000030517578,42.63800048828125 12.949000358581543,41.584999084472656 19.07699966430664,39.44200134277344 C24.719999313354492,37.395999908447266 29.881000518798828,34.21200180053711 34.24100112915039,30.086999893188477 C38.499000549316406,26.125999450683594 41.874000549316406,21.312000274658203 44.145999908447266,15.958999633789062 C46.393001556396484,10.428999900817871 47.51599884033203,4.50600004196167 47.446998596191406,-1.4639999866485596 C47.507999420166016,-7.01800012588501 46.382999420166016,-12.520999908447266 44.145999908447266,-17.606000900268555 C41.819000244140625,-22.660999298095703 38.44300079345703,-27.163000106811523 34.24100112915039,-30.81100082397461z"></path>
                        </g>
                    </g>
                </g>
            </g>
        </g>
        <g clip-path="url(#__lottie_element_44)" transform="matrix(1,0,0,1,-1307,-191)" opacity="1"
           style="display: block;">
            <g mask="url(#__lottie_element_47)" style="display: block;">
                <g transform="matrix(1,0,0,1,0,0)" opacity="1">
                    <g opacity="1" transform="matrix(1,0,0,1,1781.366943359375,444.52801513671875)">
                        <path fill="rgb(65025,65025,65025)" fill-opacity="1"
                              d=" M125.94599914550781,-69.24700164794922 C119.86299896240234,-79.36900329589844 112.41699981689453,-88.60800170898438 103.81800079345703,-96.70099639892578 C95.03900146484375,-104.87699890136719 85.20899963378906,-111.8479995727539 74.58899688720703,-117.42900085449219 C63.54199981689453,-123.25499725341797 51.78900146484375,-127.63099670410156 39.62099838256836,-130.4499969482422 C13.668999671936035,-136.24000549316406 -13.23900032043457,-136.24000549316406 -39.189998626708984,-130.4499969482422 C-51.415000915527344,-127.625 -63.22800064086914,-123.25 -74.34200286865234,-117.42900085449219 C-85.02300262451172,-111.85700225830078 -94.91200256347656,-104.88400268554688 -103.74700164794922,-96.69499969482422 C-121.19999694824219,-80.35600280761719 -133.718994140625,-59.448001861572266 -139.8800048828125,-36.34700012207031 C-146.07899475097656,-12.038000106811523 -146.07899475097656,13.4399995803833 -139.8800048828125,37.749000549316406 C-133.7209930419922,60.85100173950195 -121.2020034790039,81.75900268554688 -103.74700164794922,98.09600067138672 C-94.90899658203125,106.28099822998047 -85.01799774169922,113.25199890136719 -74.33599853515625,118.82099914550781 C-63.222999572753906,124.64399719238281 -51.40999984741211,129.02099609375 -39.185001373291016,131.84500122070312 C-26.24799919128418,134.78500366210938 -13.017000198364258,136.24000549316406 0.25,136.1790008544922 C13.496000289916992,136.24000549316406 26.70599937438965,134.78399658203125 39.62099838256836,131.83900451660156 C51.78900146484375,129.02099609375 63.54199981689453,124.64399719238281 74.58899688720703,118.81700134277344 C85.20899963378906,113.23600006103516 95.03900146484375,106.26599884033203 103.81800079345703,98.09100341796875 C112.41699981689453,89.99800109863281 119.86299896240234,80.76100158691406 125.94599914550781,70.63999938964844 C132.12399291992188,60.388999938964844 136.81700134277344,49.3129997253418 139.88400268554688,37.74300003051758 C146.07899475097656,13.434000015258789 146.07899475097656,-12.043000221252441 139.88400268554688,-36.35300064086914 C136.81700134277344,-47.922000885009766 132.125,-58.99700164794922 125.94599914550781,-69.24700164794922z M62.5629997253418,30.591999053955078 C59.54100036621094,39.224998474121094 54.72800064086914,47.119998931884766 48.43899917602539,53.76100158691406 C42.41699981689453,60.17599868774414 35.099998474121094,65.23999786376953 26.975000381469727,68.61900329589844 C9.75100040435791,75.2249984741211 -9.305999755859375,75.2249984741211 -26.530000686645508,68.61900329589844 C-34.70500183105469,65.23600006103516 -42.077999114990234,60.17300033569336 -48.17300033569336,53.76100158691406 C-54.53200149536133,47.14099884033203 -59.409000396728516,39.242000579833984 -62.47999954223633,30.591999053955078 C-68.83799743652344,11.166999816894531 -68.83799743652344,-9.777999877929688 -62.47999954223633,-29.202999114990234 C-59.40999984741211,-37.85300064086914 -54.53300094604492,-45.75199890136719 -48.17300033569336,-52.37200164794922 C-42.07899856567383,-58.78499984741211 -34.70600128173828,-63.84700012207031 -26.530000686645508,-67.2300033569336 C-18.01099967956543,-70.61000061035156 -8.914999961853027,-72.29299926757812 0.25,-72.18499755859375 C9.397000312805176,-72.2979965209961 18.476999282836914,-70.61399841308594 26.975000381469727,-67.2300033569336 C35.10100173950195,-63.85200119018555 42.41699981689453,-58.78799819946289 48.43899917602539,-52.37200164794922 C54.72800064086914,-45.73099899291992 59.54199981689453,-37.83599853515625 62.5629997253418,-29.202999114990234 C68.84200286865234,-9.765999794006348 68.84200286865234,11.154999732971191 62.5629997253418,30.591999053955078z"></path>
                    </g>
                </g>
            </g>
        </g>
        <g clip-path="url(#__lottie_element_37)" transform="matrix(1,0,0,1,-1307,-191)" opacity="1"
           style="display: block;">
            <g transform="matrix(1,0,0,1,0,0)" opacity="1" style="display: block;">
                <g opacity="1" transform="matrix(1,0,0,1,1457.8590087890625,445.22100830078125)">
                    <path fill="rgb(65025,65025,65025)" fill-opacity="1"
                          d=" M22.81399917602539,-3.38700008392334 C22.81399917602539,-3.38700008392334 22.81100082397461,-3.38700008392334 22.81100082397461,-3.38700008392334 C22.81100082397461,-3.38700008392334 1.4259999990463257,47.45000076293945 1.4259999990463257,47.45000076293945 C1.4259999990463257,47.45000076293945 -18.531999588012695,-1.5770000219345093 -18.531999588012695,-1.5770000219345093 C-18.531999588012695,-1.5770000219345093 -18.530000686645508,-1.5770000219345093 -18.530000686645508,-1.5770000219345093 C-18.530000686645508,-1.5770000219345093 -71.4540023803711,-131.57200622558594 -71.4540023803711,-131.57200622558594 C-71.4540023803711,-131.57200622558594 -150.12100219726562,-131.57200622558594 -150.12100219726562,-131.57200622558594 C-150.12100219726562,-131.57200622558594 -150.12100219726562,-131.38999938964844 -150.12100219726562,-131.38999938964844 C-150.12100219726562,-131.38999938964844 -95.59200286865234,-1.5770000219345093 -95.59200286865234,-1.5770000219345093 C-95.59200286865234,-1.5770000219345093 -39.659000396728516,131.572998046875 -39.659000396728516,131.572998046875 C-39.659000396728516,131.572998046875 39.09600067138672,131.572998046875 39.09600067138672,131.572998046875 C39.09600067138672,131.572998046875 39.09199905395508,131.57200622558594 39.09199905395508,131.57200622558594 C39.09199905395508,131.57200622558594 95.26399993896484,-1.5770000219345093 95.26399993896484,-1.5770000219345093 C95.26399993896484,-1.5770000219345093 95.2699966430664,-1.5770000219345093 95.2699966430664,-1.5770000219345093 C95.2699966430664,-1.5770000219345093 150.11900329589844,-131.57200622558594 150.11900329589844,-131.57200622558594 C150.11900329589844,-131.57200622558594 76.75,-131.57200622558594 76.75,-131.57200622558594 C76.75,-131.57200622558594 22.81399917602539,-3.38700008392334 22.81399917602539,-3.38700008392334z"></path>
                </g>
            </g>
        </g>
    </g>
</svg>
