<?xml version="1.0" encoding="UTF-8"?> <svg xmlns="http://www.w3.org/2000/svg" xmlns:xlink="http://www.w3.org/1999/xlink" id="Layer_1" data-name="Layer 1" viewBox="0 0 1080 1080"><defs><style> .cls-1 { clip-path: url(#clippath); } .cls-2 { fill: #f8b3ad; } .cls-3 { fill: #f26961; } .cls-4 { fill: #ffdcd9; } .cls-5 { fill: #e9e4e5; } .cls-6 { fill: #edaaa6; } .cls-7 { fill: #8d0600; } .cls-8 { fill: #914d2d; } .cls-9 { fill: #cc4f4c; } .cls-10 { fill: #403537; } .cls-11 { fill: #292425; } .cls-12 { fill: #500400; } </style><clipPath id="clippath"><circle class="cls-10" cx="510.31" cy="254.48" r="27.03"></circle></clipPath></defs><g><g><path d="M726.49,830.35c14.72,0,26.69,11.97,26.69,26.69s-11.97,26.69-26.69,26.69-26.69-11.97-26.69-26.69,11.97-26.69,26.69-26.69m0-13.71c-22.31,0-40.4,18.09-40.4,40.4s18.09,40.4,40.4,40.4,40.4-18.09,40.4-40.4-18.09-40.4-40.4-40.4h0Z"></path><g><path class="cls-11" d="M355.31,890.96c-18.5,0-33.55-15.05-33.55-33.55s15.05-33.55,33.55-33.55,33.55,15.05,33.55,33.55-15.05,33.55-33.55,33.55Z"></path><path d="M355.31,830.71c14.72,0,26.69,11.97,26.69,26.69s-11.97,26.69-26.69,26.69-26.69-11.97-26.69-26.69,11.97-26.69,26.69-26.69m0-13.71c-22.31,0-40.4,18.09-40.4,40.4s18.09,40.4,40.4,40.4,40.4-18.09,40.4-40.4-18.09-40.4-40.4-40.4h0Z"></path></g><path d="M353.83,813.76h3.31c22.48,0,40.73,18.25,40.73,40.73v.52c0,1.72-1.4,3.12-3.12,3.12h-78.54c-1.72,0-3.12-1.4-3.12-3.12v-.52c0-22.48,18.25-40.73,40.73-40.73Z"></path><rect class="cls-11" x="723.97" y="830.01" width="5.05" height="54.07" transform="translate(-393.24 764.74) rotate(-45)"></rect><rect class="cls-11" x="699.46" y="854.52" width="54.07" height="5.05" transform="translate(-393.25 764.89) rotate(-45.01)"></rect><rect class="cls-11" x="723.97" y="830.01" width="5.05" height="54.08"></rect><rect class="cls-11" x="699.46" y="854.52" width="54.07" height="5.05"></rect><circle cx="726.49" cy="857.41" r="15.15"></circle><path class="cls-11" d="M697.06,842.84c4.36-12.63,17.98-19.79,30.92-18.81,3.79,.29,7.5,1.35,10.93,2.96,1.57,.73,2.94-1.6,1.37-2.34-6.54-3.06-13.6-4.1-20.73-2.88s-13.7,4.53-18.61,9.65c-2.93,3.05-5.11,6.71-6.49,10.71-.57,1.65,2.04,2.36,2.61,.72h0Z"></path><path class="cls-11" d="M756.33,871.29c-4.36,12.63-17.98,19.79-30.92,18.81-3.79-.29-7.5-1.35-10.93-2.96-1.57-.73-2.94,1.6-1.37,2.34,6.54,3.06,13.6,4.1,20.73,2.88s13.7-4.53,18.61-9.65c2.93-3.05,5.11-6.71,6.49-10.71,.57-1.65-2.04-2.36-2.61-.72h0Z"></path><path d="M670.57,419.85c-4.49,0-8.38-3.35-8.94-7.93l-6.55-53.75c-.29-2.42,.4-4.86,1.93-6.75,1.53-1.9,3.77-3.09,6.19-3.32l31.44-2.89c4.96-.45,9.35,3.2,9.8,8.16,.46,4.96-3.2,9.35-8.16,9.8l-22.19,2.04,5.42,44.53c.6,4.94-2.92,9.44-7.86,10.04-.37,.04-.74,.07-1.1,.07Z"></path><path class="cls-3" d="M670.47,851.96l-16.23-7.87c7.96-16.41,16.91-33,25.58-49.05,8.57-15.88,17.43-32.29,25.22-48.35l16.23,7.87c-7.96,16.41-16.91,33-25.58,49.05-8.57,15.88-17.43,32.29-25.22,48.35Z"></path><path d="M726.12,867.15c-4.47,0-8.34-3.31-8.93-7.86l-12.99-100.28c-.64-4.94,2.85-9.46,7.79-10.1,4.95-.63,9.46,2.85,10.1,7.79l12.99,100.28c.64,4.94-2.85,9.46-7.79,10.1-.39,.05-.78,.08-1.17,.08Z"></path><rect class="cls-3" x="683.39" y="382.96" width="18.04" height="410.33" transform="translate(-66.68 89.02) rotate(-7.02)"></rect><path class="cls-3" d="M368.39,824.22h302.08c3.45,0,6.25,2.8,6.25,6.25v9.54c0,12.19-9.9,22.09-22.09,22.09H382.01c-12.54,0-22.73-10.18-22.73-22.73v-6.04c0-5.03,4.08-9.11,9.11-9.11Z"></path><path class="cls-9" d="M359.28,839.37h317.44v5.36c0,9.58-7.78,17.36-17.36,17.36H367.89c-4.75,0-8.61-3.86-8.61-8.61v-14.12h0Z"></path><polygon class="cls-11" points="680.96 897.38 668.12 897.38 668.12 892.56 676.17 892.56 676.49 841.61 681.32 841.64 680.96 897.38"></polygon><path d="M704.39,566.52c-4.49,0-8.38-3.35-8.94-7.93l-9.21-75.47c-.6-4.94,2.92-9.44,7.86-10.04,4.95-.61,9.44,2.92,10.04,7.86l9.21,75.47c.6,4.94-2.92,9.44-7.86,10.04-.37,.04-.74,.07-1.1,.07Z"></path></g><path class="cls-8" d="M549.46,881.32l-45.64-1.82c.83-20.89,2.24-42.04,4.19-62.88,3.35-35.83,8.4-71.93,15.03-107.38-11.48-48.02-18.42-84.12-21.2-110.23-1.57-14.77-1.79-26.28-.65-35.19,2.54-19.86,12.52-27.72,20.45-30.81l16.62,42.54c5.7-2.23,8.17-6.55,8.59-7.89-1.04,3.32-4.85,25.44,21.74,135.64,.76,3.16,.84,6.45,.23,9.65-6.81,35.58-11.97,71.89-15.33,107.91-1.87,20.03-3.23,40.36-4.03,60.45Z"></path><rect class="cls-5" x="501" y="829.26" width="54.93" height="47.5" transform="translate(-357.81 1323.56) rotate(-86.19)"></rect><path class="cls-8" d="M454.48,876.74l-43.86-12.74,46.66-160.63,2.68-127.63,45.67,.96-2.74,130.63c-.04,2-.34,3.98-.9,5.89l-47.5,163.52Z"></path><g><path class="cls-6" d="M500.38,897.77c-.31-1.22-.74-3.07-1.07-5.35-1.48-10.17,.46-18.06,1.07-20.32,.58-2.14,1.54-5.13,3.21-8.55,3.95,.47,9.89,1.7,16.04,5.35,4.31,2.56,5.5,4.4,8.55,5.35,3.84,1.19,10.11,.83,20.32-7.49,6.94,2.42,14.84,5.27,23.52,8.55,8.23,3.11,11.98,4.66,13.9,8.55,2.32,4.72,.55,10.29-1.07,13.9h-84.48Z"></path><path class="cls-7" d="M574.16,876.38c-.46,2.43-22.58,4.59-27.8-5.35-3.38-6.44,.94-16.81,4.28-17.11,2.2-.2,4.47,3.95,6.42,7.49,1.83,3.33,2.78,6.41,3.3,8.7,11.73,3.76,13.97,5.43,13.81,6.27Z"></path></g><rect class="cls-5" x="409.87" y="832" width="54.51" height="47.5" transform="translate(-497.31 1079.86) rotate(-76.43)"></rect><path class="cls-7" d="M490.78,833.69c-.26-16.2-.04-40.95,.16-64.89,.2-23.35,.41-47.5,.17-62.49l-.08-4.7,.82-4.63c.1-.57,.4-2.35,.64-4.08,.66-10.27-.99-63.26-8.26-169.58l98.23-6.72c7.4,108.14,9.99,171.64,7.7,188.72-.18,1.35-.37,2.67-.56,3.86,.16,16.09-.03,38.62-.22,60.47-.2,23.34-.41,47.48-.17,62.47l-98.45,1.57Z"></path><path class="cls-12" d="M512.61,561.65c4.23,62.4-7.9,189.68-3.67,252.08,11.09-21,32.82-104.71,35.54-119.71,3.22-17.78,2.59-29.54,1.83-73.99-.4-23.28-.63-43.2-.76-58.57-10.98,.07-21.96,.13-32.94,.2Z"></path><path class="cls-7" d="M496.78,853.24l-94.44-27.86c2.25-7.61,7.89-29.97,12.43-47.93,4.11-16.27,7.66-30.32,9.7-37.69,4.08-14.71,8.09-29.66,11.94-44.48,.11-.71,.24-1.55,.36-2.38,.66-10.27-.99-63.26-8.26-169.58l98.23-6.72c7.4,108.14,9.99,171.63,7.7,188.72-.58,4.31-1.28,8.31-1.35,8.75l-.34,1.92-.49,1.88c-4.15,16.03-8.5,32.24-12.91,48.17-1.74,6.28-5.49,21.14-9.12,35.51-5.48,21.7-10.66,42.21-13.45,51.68Z"></path><g><path class="cls-8" d="M499.87,316.23c27.61,21.21,54.72,46.82,86.89,58.46,5.93,2.39,12.06,3.56,18.16,5.23,.87,.2,1.71,.48,2.57,.75l-62.56,29.86c4.29-9.04,8.21-18.69,11.68-28.76,3.41-9.81,6.32-19.95,8.6-30.11,1.4-5.93,2.78-11.76,3.46-17.93,1.9-14.61,.01-30.16-3.35-45.42-1.47-7.07-3.5-14.08-4.13-21.42-.29-2.55,3.02-4.08,4.75-2.14,10.82,10.71,22.18,21.41,30.34,34.56,17.18,26.63,20.59,60.06,16.24,90.96-2.21,15.51-6.7,30.68-13.12,45-1.2,2.69-4.16,4.04-6.92,3.32-13.49-3.51-26.42-9.43-37.8-17.47-33.9-24-52.97-63.68-60.66-103.53-.48-2.31,2.32-4.06,4.17-2.61,0,0,1.66,1.24,1.66,1.24h0Z"></path><path class="cls-8" d="M555.53,260.14c4.84-1.46,9.71,2.65,14.28,6.51,3.69,3.12,8.98,8.47,13.35,17.02-4.35,1.69-8.06,2.58-10.73,3.09-1.67,.32-2.91,.56-4.58,.63-1.24,.05-6.15,.29-10.07-1.56-6.04-2.85-10.88-11.21-8.63-18.37,.23-.74,1.95-5.97,6.39-7.31Z"></path></g><g><path class="cls-2" d="M407.2,897.77c-.31-1.22-.74-3.07-1.07-5.35-1.48-10.17,.46-18.06,1.07-20.32,.58-2.14,1.54-5.13,3.21-8.55,3.95,.47,9.89,1.7,16.04,5.35,4.31,2.56,5.5,4.4,8.55,5.35,3.84,1.19,10.11,.83,20.32-7.49,6.94,2.42,14.84,5.27,23.52,8.55,8.23,3.11,11.98,4.66,13.9,8.55,2.32,4.72,.55,10.29-1.07,13.9h-84.48Z"></path><path class="cls-7" d="M480.98,876.38c-.46,2.43-22.58,4.59-27.8-5.35-3.38-6.44,.94-16.81,4.28-17.11,2.2-.2,4.47,3.95,6.42,7.49,1.83,3.33,2.78,6.41,3.3,8.7,11.73,3.76,13.97,5.43,13.81,6.27Z"></path></g><path class="cls-2" d="M398.41,566.17c2.54-55.28,10.4-141.18,36.54-217.41,9.8-28.58,22.68-57.27,49.33-66.69,21.45-7.58,41.88,.83,44.19,1.83,17.44,7.47,38.58,27.02,60.86,132.46,7.86,37.2,16.16,87.76,19.18,148.9-32.84,3.86-69.79,6.44-110.18,6.39-36.32-.04-69.79-2.2-99.92-5.48Z"></path><path class="cls-12" d="M537.26,393.73c-6.34,4.97-16.82,11.82-31.24,15.67-25.61,6.84-47.1-.2-55.26-3.37-.19-14.94,.44-31.67,2.49-49.82,1.55-13.75,3.71-26.48,6.16-38.07,25.95,25.2,51.9,50.39,77.84,75.59Z"></path><path class="cls-12" d="M548.33,276.48c-3.09,0-6.64-.44-10.4-1.74-7.28-2.5-11.97-6.99-14.63-10.31l3.55-2.84c2.28,2.85,6.32,6.71,12.56,8.85,5.98,2.05,11.31,1.61,14.74,.88l.95,4.44c-1.83,.39-4.13,.71-6.76,.71Z"></path><g><circle class="cls-10" cx="510.31" cy="254.48" r="27.03"></circle><g class="cls-1"><circle class="cls-8" cx="510.31" cy="254.48" r="27.03"></circle></g></g><g><path class="cls-8" d="M495.81,318.35c2.57,14.97,5.19,31.07,9.88,44.82,3.43,10.12,6.79,17.84,12.7,25.89,2.81,3.56,5.77,6.41,8.83,7.84,.99,.54,2.48,.71,2.92,.97,1.25,.42,2.34,.92,3.82,1.45,2.14,.81,4.93,1.57,7.34,2.11,0,0-49.58,16.36-49.58,16.36,5.87-6.07,14.55-10.22,22.53-13.68,0,0,.57-.26,.57-.26,.92-.84,1.88-2.42,2.71-3.47,18.45-25.63,22.01-61.28,20.99-93.67-.26-8.16-.86-16.68-1.52-25.38-.25-2.94,3.81-4.29,5.32-1.68,8.03,13.57,14.32,28.1,18.94,43.21,14.97,45.96,8.13,99.29-25.6,135.52-1.43,1.59-3.53,2.2-5.49,1.81-7.46-1.36-14.8-3.71-21.76-7.01-37.84-17.89-47.27-60.85-36.6-98.5,3.96-14.21,10.51-27.54,18.96-39.57,1.2-1.85,4.26-1.2,4.61,.95,0,0,.44,2.27,.44,2.27h0Z"></path><path class="cls-8" d="M541.83,268.36c1.34,1.12,5.55,4.91,7.26,11.27,2.92,10.86-3.92,19.91-4.83,21.08-4.05-2.32-7.08-4.64-9.16-6.4-1.29-1.1-2.27-1.91-3.37-3.17-.36-.41-3.63-4.13-5.12-8.81-1.98-6.18-1.64-16.4,3.35-18.55,4.24-1.82,9.98,2.98,11.88,4.57Z"></path></g><path class="cls-12" d="M525.4,280.95c-5,0-10.86-.86-16.95-3.56-5.42-2.39-10.2-5.87-14.23-10.34l3.38-3.04c3.59,3.99,7.86,7.09,12.68,9.22,8.8,3.89,17.06,3.5,22.44,2.48l.84,4.47c-2.3,.43-5.07,.76-8.17,.76Z"></path><path class="cls-4" d="M486.16,291.33c3.34,.08,6.65,1.13,10.92,3.8,14.27,8.92,21.1,24.53,25.5,36.41,5.19,14.02,11.43,34.85,14.37,61.74-13.42,3.19-28.13,6.1-44.02,8.41-14.97,2.18-29.08,3.54-42.16,4.33-3.58-75.81,9.78-95.95,9.78-95.95,4.06-5.81,13.27-19.03,25.61-18.74Z"></path><g><path class="cls-3" d="M493.04,275.75c-10.51-7.15-16.37-18.7-15.24-30.23,.16-1.6,1.22-10.93,8.9-18.31,10.78-10.35,29.36-11.8,40.68-2.9,5.17,4.07,7.63,9.36,8.81,12.7-2.18,.47-4.37,.95-6.57,1.44-11.71,2.62-23.15,5.42-34.31,8.39,.89,1.14,5.67,7.48,4.42,16.24-1.01,7.09-5.35,11.41-6.69,12.66Z"></path><path class="cls-3" d="M493.23,278.35l-1.34-.91c-11.15-7.58-17.33-19.89-16.12-32.12,.27-2.71,1.74-12.11,9.51-19.58,11.52-11.07,31.38-12.45,43.36-3.03,4.22,3.32,7.5,8.04,9.47,13.63l.77,2.19-2.27,.49c-2.18,.47-4.36,.95-6.55,1.44-10.48,2.34-21.05,4.91-31.46,7.64,1.85,3.17,4.1,8.61,3.15,15.29-1.01,7.11-5.03,11.74-7.33,13.87l-1.19,1.1Zm16.08-57.86c-7.69,0-15.56,2.79-21.2,8.2-6.76,6.49-8.05,14.68-8.28,17.03-1.01,10.23,3.94,20.57,12.98,27.35,1.87-2.05,4.21-5.48,4.89-10.27,1.07-7.52-2.8-13.15-4.01-14.7l-1.91-2.44,2.99-.8c11.35-3.02,22.93-5.84,34.39-8.41,1.41-.32,2.82-.63,4.23-.93-1.73-3.93-4.18-7.16-7.29-9.61-4.65-3.66-10.66-5.44-16.8-5.44Z"></path></g><rect x="301.58" y="897.31" width="476.85" height=".91"></rect></g><rect x="548.3" y="227.5" width="4.54" height="14.1"></rect><rect x="554.53" y="237.28" width="14.1" height="4.54" transform="translate(-4.9 467.26) rotate(-45)"></rect></svg> 